<?xml version="1.0" standalone="no"?>
<!DOCTYPE svg PUBLIC "-//W3C//DTD SVG 20010904//EN"
 "http://www.w3.org/TR/2001/REC-SVG-20010904/DTD/svg10.dtd">
<svg version="1.0" xmlns="http://www.w3.org/2000/svg"
 width="621.000000pt" height="478.000000pt" viewBox="0 0 621.000000 478.000000"
 preserveAspectRatio="xMidYMid meet">

<g transform="translate(0.000000,478.000000) scale(0.100000,-0.100000)"
fill="#000000" stroke="none">
<path d="M1930 4284 c-8 -3 -26 -11 -38 -17 -53 -26 -52 -1 -52 -899 0 -916
-4 -860 60 -893 25 -13 106 -15 539 -15 l509 0 31 -25 c59 -50 60 -128 1 -180
-20 -18 -40 -21 -199 -25 -171 -5 -177 -6 -224 -33 -54 -32 -103 -92 -112
-140 -4 -18 -9 -40 -11 -49 -5 -17 35 -18 745 -18 l751 0 0 28 c0 43 -47 127
-87 158 -60 46 -96 53 -263 54 -168 1 -188 6 -221 56 -23 35 -24 75 -4 114 31
61 25 60 580 60 433 0 510 2 535 15 63 32 60 -6 60 895 0 900 2 870 -58 901
-22 11 -238 14 -1277 16 -687 1 -1257 0 -1265 -3z m2341 -271 c2 -10 3 -305 1
-655 l-2 -638 -1090 0 -1090 0 0 150 0 150 336 0 335 0 30 -32 c16 -18 29 -36
29 -39 0 -13 86 -49 118 -49 122 0 201 130 147 245 -33 67 -134 104 -209 75
-15 -5 -48 -32 -75 -60 l-49 -50 -331 0 -331 0 0 110 0 110 179 0 179 0 33
-41 c44 -55 106 -83 166 -74 64 9 129 74 138 139 9 58 -24 130 -74 163 -67 45
-181 23 -224 -43 -12 -19 -33 -38 -47 -44 -15 -6 -89 -9 -185 -8 l-160 3 -3
103 -3 102 340 0 339 0 32 -40 c42 -53 77 -70 142 -70 95 0 162 70 160 166 -3
109 -99 180 -207 153 -36 -9 -55 -23 -87 -60 l-41 -49 -339 0 -338 0 0 150 0
150 1089 0 c1029 0 1089 -1 1092 -17z m-1281 -273 c41 -41 35 -93 -15 -126
-46 -30 -115 11 -115 68 0 64 86 102 130 58z m-331 -295 c48 -24 56 -81 16
-120 -38 -39 -102 -27 -124 22 -17 37 -14 52 18 84 33 33 50 35 90 14z m333
-322 c26 -29 30 -60 14 -91 -25 -49 -82 -57 -121 -17 -30 30 -32 64 -4 99 25
32 87 37 111 9z"/>
<path d="M957 1516 c-110 -24 -192 -109 -217 -225 -32 -152 33 -301 158 -363
38 -19 63 -23 137 -23 78 0 97 4 147 28 61 30 105 78 132 141 27 66 27 66 -80
66 -93 0 -98 -1 -131 -30 -45 -40 -91 -40 -135 -1 -28 25 -32 35 -36 92 -3 55
0 69 20 99 41 61 126 63 165 3 14 -22 21 -23 114 -23 113 0 114 1 78 80 -40
88 -109 140 -214 159 -68 13 -63 13 -138 -3z"/>
<path d="M1607 1516 c-64 -18 -125 -62 -164 -120 -41 -60 -53 -103 -53 -192 0
-121 68 -226 179 -278 67 -30 197 -29 266 2 66 30 128 93 156 156 31 70 32
191 2 258 -30 66 -94 132 -156 158 -64 28 -164 35 -230 16z m161 -182 c75 -52
66 -214 -14 -244 -80 -31 -156 15 -169 101 -8 57 17 124 54 144 35 19 101 19
129 -1z"/>
<path d="M2090 1215 l0 -305 95 0 95 0 0 143 c0 80 4 136 9 129 4 -7 25 -72
47 -143 l38 -129 86 0 85 0 40 131 c21 72 43 133 47 135 4 3 8 -56 8 -130 l0
-136 95 0 95 0 0 305 0 305 -119 0 -118 0 -64 -180 c-35 -98 -67 -176 -70
-172 -4 4 -35 85 -70 180 l-62 172 -119 0 -118 0 0 -305z"/>
<path d="M2920 1216 l0 -306 95 0 95 0 0 95 0 95 58 0 c74 0 149 22 184 55
100 93 85 265 -28 331 -48 29 -52 29 -226 32 l-178 4 0 -306z m288 132 c14
-14 16 -57 3 -77 -5 -7 -29 -16 -55 -18 l-46 -6 0 57 0 56 43 0 c24 0 48 -5
55 -12z"/>
<path d="M3470 1335 c0 -210 9 -266 53 -332 106 -157 390 -128 471 47 19 40
21 68 24 258 l4 212 -95 0 -95 0 -4 -196 -3 -196 -28 -24 c-36 -30 -68 -30
-104 0 l-28 24 -4 196 -3 196 -94 0 -94 0 0 -185z"/>
<path d="M4070 1445 l0 -75 80 0 80 0 0 -230 0 -230 95 0 95 0 2 228 3 227 83
3 82 3 0 74 0 75 -260 0 -260 0 0 -75z"/>
<path d="M4640 1215 l0 -305 205 0 205 0 0 75 0 75 -110 0 -110 0 0 45 0 45
95 0 95 0 0 70 0 70 -95 0 -95 0 0 40 0 40 110 0 110 0 0 75 0 75 -205 0 -205
0 0 -305z"/>
<path d="M5120 1215 l0 -305 95 0 94 0 3 103 3 102 53 -102 54 -103 104 0 c57
0 104 2 104 5 0 3 -27 53 -61 112 -55 97 -59 109 -44 118 39 22 77 59 92 89
22 42 22 132 0 173 -49 92 -110 113 -334 113 l-163 0 0 -305z m304 129 c42
-42 -1 -98 -71 -92 l-38 3 -3 53 -3 52 50 0 c32 0 55 -6 65 -16z"/>
<path d="M1635 571 c-51 -16 -75 -49 -75 -101 0 -46 47 -90 95 -90 45 0 95 45
95 84 0 24 -3 26 -50 26 -38 0 -50 -4 -50 -15 0 -10 10 -15 30 -15 35 0 41
-23 11 -40 -48 -25 -95 6 -93 61 1 54 40 78 88 53 50 -26 77 -9 32 20 -31 19
-59 25 -83 17z"/>
<path d="M3075 571 c-51 -16 -75 -49 -75 -101 0 -46 47 -90 95 -90 45 0 95 45
95 84 0 24 -3 26 -50 26 -38 0 -50 -4 -50 -15 0 -10 10 -15 30 -15 35 0 41
-23 11 -40 -48 -25 -95 6 -93 61 1 54 40 78 88 53 50 -26 77 -9 32 20 -31 19
-59 25 -83 17z"/>
<path d="M3380 569 c-38 -16 -59 -39 -66 -74 -12 -68 48 -124 119 -111 44 8
67 35 74 84 4 33 1 44 -23 70 -33 35 -68 46 -104 31z m78 -47 c17 -22 15 -72
-5 -94 -37 -42 -103 -9 -103 52 0 61 71 89 108 42z"/>
<path d="M3922 568 c-30 -15 -40 -55 -18 -76 9 -10 31 -22 49 -28 18 -6 33
-18 35 -27 4 -22 -26 -33 -49 -19 -10 7 -26 12 -34 12 -13 0 -14 -4 -5 -20 21
-39 99 -38 120 0 18 33 2 60 -46 80 -43 19 -58 45 -31 56 7 2 27 -2 43 -11 19
-10 30 -11 33 -4 10 30 -59 56 -97 37z"/>
<path d="M990 560 c0 -5 11 -10 25 -10 25 0 25 -1 25 -85 0 -78 2 -85 20 -85
18 0 20 7 20 85 0 84 0 85 25 85 14 0 25 5 25 10 0 6 -30 10 -70 10 -40 0 -70
-4 -70 -10z"/>
<path d="M1296 488 c-16 -46 -31 -89 -34 -95 -2 -8 4 -13 16 -13 11 0 22 8 25
20 4 16 14 20 45 20 32 0 42 -4 47 -20 3 -11 15 -20 25 -20 18 0 17 7 -14 93
-29 78 -37 92 -57 95 -22 3 -27 -5 -53 -80z m69 2 c9 -42 8 -44 -20 -47 -29
-4 -29 -3 -14 48 13 43 24 43 34 -1z"/>
<path d="M1880 475 l0 -95 50 0 c38 0 50 4 50 15 0 10 -10 15 -30 15 l-30 0 0
80 c0 73 -2 80 -20 80 -19 0 -20 -7 -20 -95z"/>
<path d="M2110 475 c0 -78 3 -95 15 -95 12 0 15 17 15 95 0 78 -3 95 -15 95
-12 0 -15 -17 -15 -95z"/>
<path d="M2290 475 c0 -78 3 -95 15 -95 12 0 15 14 15 65 0 36 3 65 8 65 4 -1
25 -30 47 -65 25 -40 46 -65 57 -65 16 0 18 11 18 95 0 76 -3 95 -15 95 -11 0
-15 -16 -17 -67 l-3 -67 -44 67 c-28 43 -50 67 -62 67 -17 0 -19 -9 -19 -95z"/>
<path d="M2600 475 l0 -95 50 0 c38 0 50 4 50 15 0 10 -11 15 -35 15 -32 0
-35 2 -35 30 0 28 3 30 35 30 19 0 35 5 35 10 0 6 -16 10 -35 10 -32 0 -35 2
-35 30 0 28 3 30 35 30 19 0 35 5 35 10 0 6 -22 10 -50 10 l-50 0 0 -95z"/>
<path d="M3640 475 l0 -95 55 0 c42 0 55 3 55 15 0 10 -11 15 -35 15 -32 0
-35 2 -35 30 0 27 3 30 30 30 17 0 30 5 30 10 0 6 -13 10 -30 10 -27 0 -30 3
-30 30 0 28 3 30 35 30 19 0 35 5 35 10 0 6 -25 10 -55 10 l-55 0 0 -95z"/>
<path d="M4330 475 c0 -76 3 -95 14 -95 10 0 16 14 18 43 l3 42 43 1 42 2 0
-44 c0 -37 3 -44 20 -44 19 0 20 7 20 95 0 88 -1 95 -20 95 -17 0 -20 -7 -20
-41 l0 -40 -42 3 c-42 3 -43 4 -46 41 -2 24 -8 37 -18 37 -11 0 -14 -19 -14
-95z"/>
<path d="M4630 475 l0 -95 55 0 c42 0 55 3 55 15 0 11 -11 15 -41 15 -38 0
-40 1 -37 28 2 22 8 28 36 30 43 4 41 22 -4 22 -33 0 -35 2 -32 28 3 23 8 27
41 30 57 5 44 22 -18 22 l-55 0 0 -95z"/>
<path d="M4880 475 c0 -78 3 -95 15 -95 11 0 15 11 15 41 0 50 16 48 45 -4 11
-21 28 -37 38 -37 22 0 21 5 -3 46 l-21 33 21 11 c14 8 20 21 20 45 0 42 -20
55 -84 55 l-46 0 0 -95z m86 61 c25 -19 8 -50 -30 -54 -23 -3 -26 0 -26 26 0
45 20 54 56 28z"/>
<path d="M5160 475 l0 -95 50 0 c38 0 50 4 50 15 0 10 -11 15 -35 15 -32 0
-35 2 -35 30 0 28 3 30 35 30 19 0 35 5 35 10 0 6 -16 10 -35 10 -32 0 -35 2
-35 30 0 28 3 30 35 30 19 0 35 5 35 10 0 6 -22 10 -50 10 l-50 0 0 -95z"/>
</g>
</svg>
